<svg xmlns="http://www.w3.org/2000/svg" xmlns:xlink="http://www.w3.org/1999/xlink" xmlns:lucid="lucid" width="1260" height="380"><g transform="translate(-140 -140)" lucid:page-tab-id="0_0"><path d="M160 220h320v80H160z" stroke="#000" stroke-width="2" fill="#ffc374"/><use xlink:href="#a" transform="matrix(1,0,0,1,165,225) translate(104.3 16.5875)"/><use xlink:href="#b" transform="matrix(1,0,0,1,165,225) translate(155.8 16.5875)"/><use xlink:href="#c" transform="matrix(1,0,0,1,165,225) translate(111.125 38.1875)"/><use xlink:href="#d" transform="matrix(1,0,0,1,165,225) translate(25.19999999999999 59.7875)"/><use xlink:href="#e" transform="matrix(1,0,0,1,165,225) translate(121.05 59.7875)"/><use xlink:href="#f" transform="matrix(1,0,0,1,165,225) translate(132 59.7875)"/><use xlink:href="#g" transform="matrix(1,0,0,1,165,225) translate(187.95 59.7875)"/><use xlink:href="#h" transform="matrix(1,0,0,1,165,225) translate(218.89999999999998 59.7875)"/><path d="M160 160h100v60H160z" stroke="#000" stroke-width="2" fill="#ff8f80"/><use xlink:href="#i" transform="matrix(1,0,0,1,165,165) translate(13.574999999999996 30.3375)"/><path d="M260 160h100v60H260z" stroke="#000" stroke-width="2" fill="#ff8f80"/><use xlink:href="#j" transform="matrix(1,0,0,1,265,165) translate(42.5 30.3375)"/><path d="M360 160h120v60H360z" stroke="#000" stroke-width="2" fill="#ff8f80"/><use xlink:href="#k" transform="matrix(1,0,0,1,365,165) translate(5.049999999999997 30.3375)"/><path d="M515.2 160H1380v340H515.2z" stroke="#000" stroke-width="2" fill="#c1e4f7"/><use xlink:href="#l" transform="matrix(1,0,0,1,520.1999999999998,165) translate(427.5 40.18125)"/><use xlink:href="#m" transform="matrix(1,0,0,1,520.1999999999998,165) translate(427.5 61.78125)"/><use xlink:href="#m" transform="matrix(1,0,0,1,520.1999999999998,165) translate(427.5 83.38125000000001)"/><use xlink:href="#m" transform="matrix(1,0,0,1,520.1999999999998,165) translate(427.5 104.98125000000002)"/><use xlink:href="#m" transform="matrix(1,0,0,1,520.1999999999998,165) translate(427.5 126.58125000000001)"/><use xlink:href="#m" transform="matrix(1,0,0,1,520.1999999999998,165) translate(427.5 148.18125)"/><use xlink:href="#m" transform="matrix(1,0,0,1,520.1999999999998,165) translate(427.5 169.78125)"/><use xlink:href="#m" transform="matrix(1,0,0,1,520.1999999999998,165) translate(427.5 191.38125)"/><use xlink:href="#m" transform="matrix(1,0,0,1,520.1999999999998,165) translate(427.5 212.98125)"/><use xlink:href="#m" transform="matrix(1,0,0,1,520.1999999999998,165) translate(427.5 234.58124999999998)"/><use xlink:href="#m" transform="matrix(1,0,0,1,520.1999999999998,165) translate(427.5 256.18125)"/><use xlink:href="#m" transform="matrix(1,0,0,1,520.1999999999998,165) translate(427.5 277.78124999999994)"/><use xlink:href="#n" transform="matrix(1,0,0,1,520.1999999999998,165) translate(303.2 299.38124999999997)"/><use xlink:href="#e" transform="matrix(1,0,0,1,520.1999999999998,165) translate(399.05 299.38124999999997)"/><use xlink:href="#f" transform="matrix(1,0,0,1,520.1999999999998,165) translate(410 299.38124999999997)"/><use xlink:href="#g" transform="matrix(1,0,0,1,520.1999999999998,165) translate(465.95 299.38124999999997)"/><use xlink:href="#o" transform="matrix(1,0,0,1,520.1999999999998,165) translate(496.9 299.38124999999997)"/><path d="M1200 300h160v40h-160z" stroke="#000" stroke-width="2" fill="#fff"/><use xlink:href="#p" transform="matrix(1,0,0,1,1205,304.99999999999994) translate(46.55 18.15)"/><use xlink:href="#q" transform="matrix(1,0,0,1,1205,304.99999999999994) translate(93.45 18.15)"/><path d="M1200 380h160v40h-160z" stroke="#000" stroke-width="2" fill="#fff"/><use xlink:href="#p" transform="matrix(1,0,0,1,1205,385) translate(45.074999999999996 18.15)"/><use xlink:href="#r" transform="matrix(1,0,0,1,1205,385) translate(91.975 18.15)"/><path d="M1200 340h160v40h-160z" stroke="#000" stroke-width="2" fill="#fff"/><use xlink:href="#p" transform="matrix(1,0,0,1,1205,344.99999999999994) translate(44.05 18.15)"/><use xlink:href="#s" transform="matrix(1,0,0,1,1205,344.99999999999994) translate(90.95 18.15)"/><path d="M515.2 160H1380v60H515.2z" stroke="#000" stroke-width="2" fill="#3aa6dd"/><use xlink:href="#t" transform="matrix(1,0,0,1,520.1999999999998,165) translate(396.05 30.025)"/><path d="M1000 300h160v40h-160z" stroke="#000" stroke-width="2" fill="#fff"/><use xlink:href="#u" transform="matrix(1,0,0,1,1005,304.99999999999994) translate(28.049999999999997 18.15)"/><use xlink:href="#v" transform="matrix(1,0,0,1,1005,304.99999999999994) translate(71.05 18.15)"/><path d="M1000 340h160v40h-160z" stroke="#000" stroke-width="2" fill="#fff"/><use xlink:href="#u" transform="matrix(1,0,0,1,1005,344.99999999999994) translate(28.049999999999997 18.15)"/><use xlink:href="#v" transform="matrix(1,0,0,1,1005,344.99999999999994) translate(71.05 18.15)"/><path d="M1198 320h-18.5" stroke="#000" stroke-width="2" fill="none"/><path d="M1199 321h-1.03v-2h1.03z"/><path d="M1164.24 320l14.26-4.64v9.28z" stroke="#000" stroke-width="2"/><path d="M1198 360h-18.5" stroke="#000" stroke-width="2" fill="none"/><path d="M1199 361h-1.03v-2h1.03z"/><path d="M1164.24 360l14.26-4.64v9.28z" stroke="#000" stroke-width="2"/><path d="M1000 380h160v40h-160z" stroke="#000" stroke-width="2" fill="#fff"/><use xlink:href="#u" transform="matrix(1,0,0,1,1005,384.99999999999994) translate(28.049999999999997 18.15)"/><use xlink:href="#v" transform="matrix(1,0,0,1,1005,384.99999999999994) translate(71.05 18.15)"/><path d="M1198 400h-18.5" stroke="#000" stroke-width="2" fill="none"/><path d="M1199 401h-1.03v-2h1.03z"/><path d="M1164.24 400l14.26-4.64v9.28z" stroke="#000" stroke-width="2"/><path d="M780 300h170v40H780z" stroke="#000" stroke-width="2" fill="#fff"/><use xlink:href="#w" transform="matrix(1,0,0,1,785,304.99999999999994) translate(4.599999999999994 18.275)"/><use xlink:href="#x" transform="matrix(1,0,0,1,785,304.99999999999994) translate(90.5 18.275)"/><path d="M780 340h170v40H780z" stroke="#000" stroke-width="2" fill="#fff"/><use xlink:href="#w" transform="matrix(1,0,0,1,785,344.99999999999994) translate(4.599999999999994 18.275)"/><use xlink:href="#x" transform="matrix(1,0,0,1,785,344.99999999999994) translate(90.5 18.275)"/><path d="M780 380h170v40H780z" stroke="#000" stroke-width="2" fill="#fff"/><use xlink:href="#w" transform="matrix(1,0,0,1,785,384.99999999999994) translate(4.599999999999994 18.275)"/><use xlink:href="#x" transform="matrix(1,0,0,1,785,384.99999999999994) translate(90.5 18.275)"/><path d="M998 320h-28.5" stroke="#000" stroke-width="2" fill="none"/><path d="M999 321h-1.03v-2H999z"/><path d="M954.24 320l14.26-4.64v9.28z" stroke="#000" stroke-width="2"/><path d="M998 360h-28.5" stroke="#000" stroke-width="2" fill="none"/><path d="M999 361h-1.03v-2H999z"/><path d="M954.24 360l14.26-4.64v9.28z" stroke="#000" stroke-width="2"/><path d="M998 400h-28.5" stroke="#000" stroke-width="2" fill="none"/><path d="M999 401h-1.03v-2H999z"/><path d="M954.24 400l14.26-4.64v9.28z" stroke="#000" stroke-width="2"/><path d="M560 300h170v40H560z" stroke="#000" stroke-width="2" fill="#fff"/><g><use xlink:href="#y" transform="matrix(1,0,0,1,565,305) translate(3.9749999999999943 18.275)"/><use xlink:href="#z" transform="matrix(1,0,0,1,565,305) translate(96.075 18.275)"/></g><path d="M560 340h170v40H560z" stroke="#000" stroke-width="2" fill="#fff"/><g><use xlink:href="#y" transform="matrix(1,0,0,1,565,345) translate(3.9749999999999943 18.275)"/><use xlink:href="#z" transform="matrix(1,0,0,1,565,345) translate(96.075 18.275)"/></g><path d="M560 380h170v40H560z" stroke="#000" stroke-width="2" fill="#fff"/><g><use xlink:href="#y" transform="matrix(1,0,0,1,565,385) translate(3.9749999999999943 18.275)"/><use xlink:href="#z" transform="matrix(1,0,0,1,565,385) translate(96.075 18.275)"/></g><path d="M778 320h-28.5" stroke="#000" stroke-width="2" fill="none"/><path d="M779 321h-1.03v-2H779z"/><path d="M734.24 320l14.26-4.64v9.28z" stroke="#000" stroke-width="2"/><path d="M778 360h-28.5" stroke="#000" stroke-width="2" fill="none"/><path d="M779 361h-1.03v-2H779z"/><path d="M734.24 360l14.26-4.64v9.28z" stroke="#000" stroke-width="2"/><path d="M778 400h-28.5" stroke="#000" stroke-width="2" fill="none"/><path d="M779 401h-1.03v-2H779z"/><path d="M734.24 400l14.26-4.64v9.28z" stroke="#000" stroke-width="2"/><path d="M320 302v18h220.5" stroke="#000" stroke-width="2" fill="none"/><path d="M321 302.03h-2V301h2z"/><path d="M555.76 320l-14.26 4.64v-9.28z" stroke="#000" stroke-width="2"/><path d="M320 302v58h220.5" stroke="#000" stroke-width="2" fill="none"/><path d="M321 302.03h-2V301h2z"/><path d="M555.76 360l-14.26 4.64v-9.28z" stroke="#000" stroke-width="2"/><path d="M320 302v98h220.5" stroke="#000" stroke-width="2" fill="none"/><path d="M321 302.03h-2V301h2z"/><path d="M555.76 400l-14.26 4.64v-9.28z" stroke="#000" stroke-width="2"/><defs><path d="M197 0v-115H63V0H30v-248h33v105h134v-105h34V0h-34" id="A"/><path d="M127-220V0H93v-220H8v-28h204v28h-85" id="B"/><path d="M30-248c87 1 191-15 191 75 0 78-77 80-158 76V0H30v-248zm33 125c57 0 124 11 124-50 0-59-68-47-124-48v98" id="C"/><g id="a"><use transform="matrix(0.05,0,0,0.05,0,0)" xlink:href="#A"/><use transform="matrix(0.05,0,0,0.05,12.950000000000001,0)" xlink:href="#B"/><use transform="matrix(0.05,0,0,0.05,23.900000000000002,0)" xlink:href="#B"/><use transform="matrix(0.05,0,0,0.05,34.85,0)" xlink:href="#C"/></g><path d="M135-143c-3-34-86-38-87 0 15 53 115 12 119 90S17 21 10-45l28-5c4 36 97 45 98 0-10-56-113-15-118-90-4-57 82-63 122-42 12 7 21 19 24 35" id="D"/><path d="M100-194c63 0 86 42 84 106H49c0 40 14 67 53 68 26 1 43-12 49-29l28 8c-11 28-37 45-77 45C44 4 14-33 15-96c1-61 26-98 85-98zm52 81c6-60-76-77-97-28-3 7-6 17-6 28h103" id="E"/><path d="M114-163C36-179 61-72 57 0H25l-1-190h30c1 12-1 29 2 39 6-27 23-49 58-41v29" id="F"/><path d="M108 0H70L1-190h34L89-25l56-165h34" id="G"/><g id="b"><use transform="matrix(0.05,0,0,0.05,0,0)" xlink:href="#D"/><use transform="matrix(0.05,0,0,0.05,9,0)" xlink:href="#E"/><use transform="matrix(0.05,0,0,0.05,19,0)" xlink:href="#F"/><use transform="matrix(0.05,0,0,0.05,24.95,0)" xlink:href="#G"/><use transform="matrix(0.05,0,0,0.05,33.95,0)" xlink:href="#E"/><use transform="matrix(0.05,0,0,0.05,43.95,0)" xlink:href="#F"/></g><path d="M87 75C49 33 22-17 22-94c0-76 28-126 65-167h31c-38 41-64 92-64 168S80 34 118 75H87" id="H"/><path d="M141-36C126-15 110 5 73 4 37 3 15-17 15-53c-1-64 63-63 125-63 3-35-9-54-41-54-24 1-41 7-42 31l-33-3c5-37 33-52 76-52 45 0 72 20 72 64v82c-1 20 7 32 28 27v20c-31 9-61-2-59-35zM48-53c0 20 12 33 32 33 41-3 63-29 60-74-43 2-92-5-92 41" id="I"/><path d="M96-169c-40 0-48 33-48 73s9 75 48 75c24 0 41-14 43-38l32 2c-6 37-31 61-74 61-59 0-76-41-82-99-10-93 101-131 147-64 4 7 5 14 7 22l-32 3c-4-21-16-35-41-35" id="J"/><path d="M59-47c-2 24 18 29 38 22v24C64 9 27 4 27-40v-127H5v-23h24l9-43h21v43h35v23H59v120" id="K"/><path d="M24-231v-30h32v30H24zM24 0v-190h32V0H24" id="L"/><path d="M141 0L90-78 38 0H4l68-98-65-92h35l48 74 47-74h35l-64 92 68 98h-35" id="M"/><path d="M16-82v-28h88v28H16" id="N"/><path d="M206 0h-36l-40-164L89 0H53L-1-190h32L70-26l43-164h34l41 164 42-164h31" id="O"/><path d="M115-194c53 0 69 39 70 98 0 66-23 100-70 100C84 3 66-7 56-30L54 0H23l1-261h32v101c10-23 28-34 59-34zm-8 174c40 0 45-34 45-75 0-40-5-75-45-74-42 0-51 32-51 76 0 43 10 73 51 73" id="P"/><path d="M33-261c38 41 65 92 65 168S71 34 33 75H2C39 34 66-17 66-93S39-220 2-261h31" id="Q"/><g id="c"><use transform="matrix(0.05,0,0,0.05,0,0)" xlink:href="#H"/><use transform="matrix(0.05,0,0,0.05,5.95,0)" xlink:href="#I"/><use transform="matrix(0.05,0,0,0.05,15.949999999999998,0)" xlink:href="#J"/><use transform="matrix(0.05,0,0,0.05,24.95,0)" xlink:href="#K"/><use transform="matrix(0.05,0,0,0.05,29.950000000000003,0)" xlink:href="#L"/><use transform="matrix(0.05,0,0,0.05,33.9,0)" xlink:href="#M"/><use transform="matrix(0.05,0,0,0.05,42.9,0)" xlink:href="#N"/><use transform="matrix(0.05,0,0,0.05,48.85,0)" xlink:href="#O"/><use transform="matrix(0.05,0,0,0.05,61.800000000000004,0)" xlink:href="#E"/><use transform="matrix(0.05,0,0,0.05,71.80000000000001,0)" xlink:href="#P"/><use transform="matrix(0.05,0,0,0.05,81.80000000000001,0)" xlink:href="#Q"/></g><path d="M106-169C34-169 62-67 57 0H25v-261h32l-1 103c12-21 28-36 61-36 89 0 53 116 60 194h-32v-121c2-32-8-49-39-48" id="R"/><path d="M85-194c31 0 48 13 60 33l-1-100h32l1 261h-30c-2-10 0-23-3-31C134-8 116 4 85 4 32 4 16-35 15-94c0-66 23-100 70-100zm9 24c-40 0-46 34-46 75 0 40 6 74 45 74 42 0 51-32 51-76 0-42-9-74-50-73" id="S"/><path d="M115-194c55 1 70 41 70 98S169 2 115 4C84 4 66-9 55-30l1 105H24l-1-265h31l2 30c10-21 28-34 59-34zm-8 174c40 0 45-34 45-75s-6-73-45-74c-42 0-51 32-51 76 0 43 10 73 51 73" id="T"/><path d="M100-194c62-1 85 37 85 99 1 63-27 99-86 99S16-35 15-95c0-66 28-99 85-99zM99-20c44 1 53-31 53-75 0-43-8-75-51-75s-53 32-53 75 10 74 51 75" id="U"/><path d="M24 0v-261h32V0H24" id="V"/><g id="d"><use transform="matrix(0.05,0,0,0.05,0,0)" xlink:href="#H"/><use transform="matrix(0.05,0,0,0.05,5.95,0)" xlink:href="#K"/><use transform="matrix(0.05,0,0,0.05,10.95,0)" xlink:href="#R"/><use transform="matrix(0.05,0,0,0.05,20.95,0)" xlink:href="#F"/><use transform="matrix(0.05,0,0,0.05,26.899999999999995,0)" xlink:href="#E"/><use transform="matrix(0.05,0,0,0.05,36.9,0)" xlink:href="#I"/><use transform="matrix(0.05,0,0,0.05,46.9,0)" xlink:href="#S"/><use transform="matrix(0.05,0,0,0.05,56.900000000000006,0)" xlink:href="#T"/><use transform="matrix(0.05,0,0,0.05,66.9,0)" xlink:href="#U"/><use transform="matrix(0.05,0,0,0.05,76.9,0)" xlink:href="#U"/><use transform="matrix(0.05,0,0,0.05,86.9,0)" xlink:href="#V"/></g><use transform="matrix(0.05,0,0,0.05,0,0)" xlink:href="#N" id="e"/><g id="f"><use transform="matrix(0.05,0,0,0.05,0,0)" xlink:href="#K"/><use transform="matrix(0.05,0,0,0.05,5,0)" xlink:href="#R"/><use transform="matrix(0.05,0,0,0.05,15,0)" xlink:href="#F"/><use transform="matrix(0.05,0,0,0.05,20.95,0)" xlink:href="#E"/><use transform="matrix(0.05,0,0,0.05,30.950000000000003,0)" xlink:href="#I"/><use transform="matrix(0.05,0,0,0.05,40.95,0)" xlink:href="#S"/></g><g id="g"><use transform="matrix(0.05,0,0,0.05,0,0)" xlink:href="#T"/><use transform="matrix(0.05,0,0,0.05,10,0)" xlink:href="#E"/><use transform="matrix(0.05,0,0,0.05,20,0)" xlink:href="#F"/></g><path d="M145-31C134-9 116 4 85 4 32 4 16-35 15-94c0-59 17-99 70-100 32-1 48 14 60 33 0-11-1-24 2-32h30l-1 268h-32zM93-21c41 0 51-33 51-76s-8-73-50-73c-40 0-46 35-46 75s5 74 45 74" id="W"/><path d="M84 4C-5 8 30-112 23-190h32v120c0 31 7 50 39 49 72-2 45-101 50-169h31l1 190h-30c-1-10 1-25-2-33-11 22-28 36-60 37" id="X"/><g id="h"><use transform="matrix(0.05,0,0,0.05,0,0)" xlink:href="#F"/><use transform="matrix(0.05,0,0,0.05,5.95,0)" xlink:href="#E"/><use transform="matrix(0.05,0,0,0.05,15.949999999999998,0)" xlink:href="#W"/><use transform="matrix(0.05,0,0,0.05,25.950000000000003,0)" xlink:href="#X"/><use transform="matrix(0.05,0,0,0.05,35.95,0)" xlink:href="#E"/><use transform="matrix(0.05,0,0,0.05,45.95,0)" xlink:href="#D"/><use transform="matrix(0.05,0,0,0.05,54.95,0)" xlink:href="#K"/><use transform="matrix(0.05,0,0,0.05,59.95,0)" xlink:href="#Q"/></g><path d="M0 4l72-265h28L28 4H0" id="Y"/><path d="M210-169c-67 3-38 105-44 169h-31v-121c0-29-5-50-35-48C34-165 62-65 56 0H25l-1-190h30c1 10-1 24 2 32 10-44 99-50 107 0 11-21 27-35 58-36 85-2 47 119 55 194h-31v-121c0-29-5-49-35-48" id="Z"/><g id="i"><use transform="matrix(0.05,0,0,0.05,0,0)" xlink:href="#Y"/><use transform="matrix(0.05,0,0,0.05,5,0)" xlink:href="#Z"/><use transform="matrix(0.05,0,0,0.05,19.950000000000003,0)" xlink:href="#E"/><use transform="matrix(0.05,0,0,0.05,29.950000000000003,0)" xlink:href="#K"/><use transform="matrix(0.05,0,0,0.05,34.95,0)" xlink:href="#F"/><use transform="matrix(0.05,0,0,0.05,40.900000000000006,0)" xlink:href="#L"/><use transform="matrix(0.05,0,0,0.05,44.85000000000001,0)" xlink:href="#J"/><use transform="matrix(0.05,0,0,0.05,53.85,0)" xlink:href="#D"/></g><use transform="matrix(0.05,0,0,0.05,0,0)" xlink:href="#Y" id="j"/><g id="k"><use transform="matrix(0.05,0,0,0.05,0,0)" xlink:href="#Y"/><use transform="matrix(0.05,0,0,0.05,5,0)" xlink:href="#T"/><use transform="matrix(0.05,0,0,0.05,15,0)" xlink:href="#F"/><use transform="matrix(0.05,0,0,0.05,20.95,0)" xlink:href="#U"/><use transform="matrix(0.05,0,0,0.05,30.950000000000003,0)" xlink:href="#Z"/><use transform="matrix(0.05,0,0,0.05,45.9,0)" xlink:href="#E"/><use transform="matrix(0.05,0,0,0.05,55.900000000000006,0)" xlink:href="#K"/><use transform="matrix(0.05,0,0,0.05,60.900000000000006,0)" xlink:href="#R"/><use transform="matrix(0.05,0,0,0.05,70.9,0)" xlink:href="#E"/><use transform="matrix(0.05,0,0,0.05,80.9,0)" xlink:href="#X"/><use transform="matrix(0.05,0,0,0.05,90.9,0)" xlink:href="#D"/></g><g id="n"><use transform="matrix(0.05,0,0,0.05,0,0)" xlink:href="#B"/><use transform="matrix(0.05,0,0,0.05,10.950000000000001,0)" xlink:href="#R"/><use transform="matrix(0.05,0,0,0.05,20.950000000000003,0)" xlink:href="#F"/><use transform="matrix(0.05,0,0,0.05,26.900000000000002,0)" xlink:href="#E"/><use transform="matrix(0.05,0,0,0.05,36.900000000000006,0)" xlink:href="#I"/><use transform="matrix(0.05,0,0,0.05,46.900000000000006,0)" xlink:href="#S"/><use transform="matrix(0.05,0,0,0.05,56.900000000000006,0)" xlink:href="#T"/><use transform="matrix(0.05,0,0,0.05,66.9,0)" xlink:href="#U"/><use transform="matrix(0.05,0,0,0.05,76.9,0)" xlink:href="#U"/><use transform="matrix(0.05,0,0,0.05,86.9,0)" xlink:href="#V"/></g><g id="o"><use transform="matrix(0.05,0,0,0.05,0,0)" xlink:href="#D"/><use transform="matrix(0.05,0,0,0.05,9,0)" xlink:href="#K"/><use transform="matrix(0.05,0,0,0.05,14,0)" xlink:href="#F"/><use transform="matrix(0.05,0,0,0.05,19.95,0)" xlink:href="#E"/><use transform="matrix(0.05,0,0,0.05,29.950000000000003,0)" xlink:href="#I"/><use transform="matrix(0.05,0,0,0.05,39.95,0)" xlink:href="#Z"/></g><g id="p"><use transform="matrix(0.05,0,0,0.05,0,0)" xlink:href="#B"/><use transform="matrix(0.05,0,0,0.05,8.950000000000001,0)" xlink:href="#U"/><use transform="matrix(0.05,0,0,0.05,18.950000000000003,0)" xlink:href="#T"/><use transform="matrix(0.05,0,0,0.05,28.950000000000003,0)" xlink:href="#L"/><use transform="matrix(0.05,0,0,0.05,32.900000000000006,0)" xlink:href="#J"/></g><path d="M27 0v-27h64v-190l-56 39v-29l58-41h29v221h61V0H27" id="aa"/><use transform="matrix(0.05,0,0,0.05,0,0)" xlink:href="#aa" id="q"/><path d="M190 0L58-211 59 0H30v-248h39L202-35l-2-213h31V0h-41" id="ab"/><use transform="matrix(0.05,0,0,0.05,0,0)" xlink:href="#ab" id="r"/><path d="M33 0v-38h34V0H33" id="ac"/><g id="s"><use transform="matrix(0.05,0,0,0.05,0,0)" xlink:href="#ac"/><use transform="matrix(0.05,0,0,0.05,5,0)" xlink:href="#ac"/><use transform="matrix(0.05,0,0,0.05,10,0)" xlink:href="#ac"/></g><path d="M185-189c-5-48-123-54-124 2 14 75 158 14 163 119 3 78-121 87-175 55-17-10-28-26-33-46l33-7c5 56 141 63 141-1 0-78-155-14-162-118-5-82 145-84 179-34 5 7 8 16 11 25" id="ad"/><g id="t"><use transform="matrix(0.05,0,0,0.05,0,0)" xlink:href="#ad"/><use transform="matrix(0.05,0,0,0.05,12,0)" xlink:href="#J"/><use transform="matrix(0.05,0,0,0.05,21,0)" xlink:href="#F"/><use transform="matrix(0.05,0,0,0.05,26.950000000000003,0)" xlink:href="#I"/><use transform="matrix(0.05,0,0,0.05,36.95,0)" xlink:href="#T"/><use transform="matrix(0.05,0,0,0.05,46.95,0)" xlink:href="#E"/><use transform="matrix(0.05,0,0,0.05,56.95,0)" xlink:href="#F"/></g><path d="M153-248C145-148 188 4 80 4 36 3 13-21 6-62l32-5c4 25 16 42 43 43 27 0 39-20 39-49v-147H72v-28h81" id="ae"/><path d="M117-194c89-4 53 116 60 194h-32v-121c0-31-8-49-39-48C34-167 62-67 57 0H25l-1-190h30c1 10-1 24 2 32 11-22 29-35 61-36" id="af"/><g id="u"><use transform="matrix(0.05,0,0,0.05,0,0)" xlink:href="#ae"/><use transform="matrix(0.05,0,0,0.05,9,0)" xlink:href="#D"/><use transform="matrix(0.05,0,0,0.05,18,0)" xlink:href="#U"/><use transform="matrix(0.05,0,0,0.05,28,0)" xlink:href="#af"/></g><g id="v"><use transform="matrix(0.05,0,0,0.05,0,0)" xlink:href="#T"/><use transform="matrix(0.05,0,0,0.05,10,0)" xlink:href="#I"/><use transform="matrix(0.05,0,0,0.05,20,0)" xlink:href="#F"/><use transform="matrix(0.05,0,0,0.05,25.950000000000003,0)" xlink:href="#D"/><use transform="matrix(0.05,0,0,0.05,34.95,0)" xlink:href="#E"/><use transform="matrix(0.05,0,0,0.05,44.95,0)" xlink:href="#F"/></g><g id="w"><use transform="matrix(0.05,0,0,0.05,0,0)" xlink:href="#ad"/><use transform="matrix(0.05,0,0,0.05,12,0)" xlink:href="#E"/><use transform="matrix(0.05,0,0,0.05,22,0)" xlink:href="#af"/><use transform="matrix(0.05,0,0,0.05,32,0)" xlink:href="#K"/><use transform="matrix(0.05,0,0,0.05,37,0)" xlink:href="#L"/><use transform="matrix(0.05,0,0,0.05,40.95,0)" xlink:href="#Z"/><use transform="matrix(0.05,0,0,0.05,55.900000000000006,0)" xlink:href="#E"/><use transform="matrix(0.05,0,0,0.05,65.9,0)" xlink:href="#af"/><use transform="matrix(0.05,0,0,0.05,75.9,0)" xlink:href="#K"/></g><path d="M179-190L93 31C79 59 56 82 12 73V49c39 6 53-20 64-50L1-190h34L92-34l54-156h33" id="ag"/><g id="x"><use transform="matrix(0.05,0,0,0.05,0,0)" xlink:href="#I"/><use transform="matrix(0.05,0,0,0.05,10,0)" xlink:href="#af"/><use transform="matrix(0.05,0,0,0.05,20,0)" xlink:href="#I"/><use transform="matrix(0.05,0,0,0.05,30,0)" xlink:href="#V"/><use transform="matrix(0.05,0,0,0.05,33.95,0)" xlink:href="#ag"/><use transform="matrix(0.05,0,0,0.05,42.95,0)" xlink:href="#D"/><use transform="matrix(0.05,0,0,0.05,51.95,0)" xlink:href="#L"/><use transform="matrix(0.05,0,0,0.05,55.900000000000006,0)" xlink:href="#D"/></g><g id="y"><use transform="matrix(0.05,0,0,0.05,0,0)" xlink:href="#B"/><use transform="matrix(0.05,0,0,0.05,10.3,0)" xlink:href="#L"/><use transform="matrix(0.05,0,0,0.05,14.25,0)" xlink:href="#Z"/><use transform="matrix(0.05,0,0,0.05,29.200000000000003,0)" xlink:href="#E"/><use transform="matrix(0.05,0,0,0.05,39.2,0)" xlink:href="#D"/><use transform="matrix(0.05,0,0,0.05,48.2,0)" xlink:href="#E"/><use transform="matrix(0.05,0,0,0.05,58.2,0)" xlink:href="#F"/><use transform="matrix(0.05,0,0,0.05,64.15,0)" xlink:href="#L"/><use transform="matrix(0.05,0,0,0.05,68.10000000000001,0)" xlink:href="#E"/><use transform="matrix(0.05,0,0,0.05,78.10000000000001,0)" xlink:href="#D"/></g><path d="M177-190C167-65 218 103 67 71c-23-6-38-20-44-43l32-5c15 47 100 32 89-28v-30C133-14 115 1 83 1 29 1 15-40 15-95c0-56 16-97 71-98 29-1 48 16 59 35 1-10 0-23 2-32h30zM94-22c36 0 50-32 50-73 0-42-14-75-50-75-39 0-46 34-46 75s6 73 46 73" id="ah"/><g id="z"><use transform="matrix(0.05,0,0,0.05,0,0)" xlink:href="#D"/><use transform="matrix(0.05,0,0,0.05,9,0)" xlink:href="#K"/><use transform="matrix(0.05,0,0,0.05,14,0)" xlink:href="#U"/><use transform="matrix(0.05,0,0,0.05,24,0)" xlink:href="#F"/><use transform="matrix(0.05,0,0,0.05,29.950000000000003,0)" xlink:href="#I"/><use transform="matrix(0.05,0,0,0.05,39.95,0)" xlink:href="#ah"/><use transform="matrix(0.05,0,0,0.05,49.95,0)" xlink:href="#E"/></g></defs></g></svg>